<?xml version="1.0" encoding="UTF-8"?>
<!DOCTYPE svg PUBLIC "-//W3C//DTD SVG 1.1//EN" "http://www.w3.org/Graphics/SVG/1.1/DTD/svg11.dtd">
<svg xmlns="http://www.w3.org/2000/svg" version="1.1" width="200px" height="200px" style="shape-rendering:geometricPrecision; text-rendering:geometricPrecision; image-rendering:optimizeQuality; fill-rule:evenodd; clip-rule:evenodd" xmlns:xlink="http://www.w3.org/1999/xlink">
<g><path style="opacity:0.873" fill="#000000" d="M 96.5,9.5 C 105.846,9.33198 109.346,13.6653 107,22.5C 99.3771,28.8125 93.8771,27.3125 90.5,18C 91.1868,14.1604 93.1868,11.3271 96.5,9.5 Z"/></g>
<g><path style="opacity:0.73" fill="#000000" d="M 145.5,53.5 C 144.324,56.1528 143.491,58.8195 143,61.5C 154.398,57.5075 165.898,57.0075 177.5,60C 180.981,60.9045 183.981,62.5712 186.5,65C 183.431,78.3064 176.265,88.8064 165,96.5C 164.333,98.5 164.333,100.5 165,102.5C 175.67,109.507 182.67,119.173 186,131.5C 186.781,132.944 186.614,134.277 185.5,135.5C 178.136,139.299 170.303,140.966 162,140.5C 155.408,140.889 149.075,139.889 143,137.5C 143.491,140.181 144.324,142.847 145.5,145.5C 142.847,144.324 140.181,143.491 137.5,143C 141.312,155.406 141.478,167.906 138,180.5C 137.152,182.874 135.819,184.874 134,186.5C 120.694,183.431 110.194,176.265 102.5,165C 100.5,164.333 98.5,164.333 96.5,165C 88.4275,177.014 77.4275,183.847 63.5,185.5C 56.9487,171.528 56.282,157.361 61.5,143C 58.4786,143.418 55.6453,144.585 53,146.5C 54.2593,143.634 55.2593,140.634 56,137.5C 43.5889,141.312 31.0889,141.479 18.5,138C 15.8848,137.205 13.8848,135.705 12.5,133.5C 15.7103,120.409 22.877,110.076 34,102.5C 34.6667,100.5 34.6667,98.5 34,96.5C 22.7355,88.8064 15.5688,78.3064 12.5,65C 15.0195,62.5712 18.0195,60.9045 21.5,60C 33.1019,57.0075 44.6019,57.5075 56,61.5C 55.5089,58.8195 54.6756,56.1528 53.5,53.5C 56.1528,54.6756 58.8195,55.5089 61.5,56C 57.5075,44.6019 57.0075,33.1019 60,21.5C 60.9045,18.0195 62.5712,15.0195 65,12.5C 78.3064,15.5688 88.8064,22.7355 96.5,34C 98.5,34.6667 100.5,34.6667 102.5,34C 109.507,23.3297 119.173,16.3297 131.5,13C 132.944,12.2195 134.277,12.3861 135.5,13.5C 139.401,20.8365 141.068,28.6699 140.5,37C 140.889,43.5916 139.889,49.925 137.5,56C 140.181,55.5089 142.847,54.6756 145.5,53.5 Z M 65.5,16.5 C 76.6135,19.2717 85.6135,25.2717 92.5,34.5C 88.372,36.3979 84.372,38.5646 80.5,41C 76.1623,45.3455 72.8289,50.3455 70.5,56C 68.5273,56.4955 66.5273,56.6621 64.5,56.5C 60.178,43.0084 60.5114,29.6751 65.5,16.5 Z M 130.5,16.5 C 131.675,16.281 132.675,16.6143 133.5,17.5C 138.47,30.3517 138.803,43.3517 134.5,56.5C 132.473,56.6621 130.473,56.4955 128.5,56C 126.261,50.857 123.261,46.1903 119.5,42C 115.461,38.9809 111.128,36.4809 106.5,34.5C 113.127,26.5228 121.127,20.5228 130.5,16.5 Z M 96.5,37.5 C 107.044,37.4387 115.378,41.6053 121.5,50C 119.122,49.4253 116.622,48.9253 114,48.5C 109.132,49.6822 104.299,51.0156 99.5,52.5C 94.7009,51.0156 89.8676,49.6822 85,48.5C 82.6212,48.4825 80.4545,49.1491 78.5,50.5C 78.1667,50.3333 77.8333,50.1667 77.5,50C 82.2253,43.3094 88.5586,39.1427 96.5,37.5 Z M 83.5,51.5 C 88.6728,53.4163 94.0062,54.7496 99.5,55.5C 104.578,55.0857 109.411,53.7523 114,51.5C 126.423,56.5796 128.923,64.9129 121.5,76.5C 121.833,76.8333 122.167,77.1667 122.5,77.5C 134.39,69.9579 142.723,72.6246 147.5,85.5C 142.167,94.8333 142.167,104.167 147.5,113.5C 142.723,126.375 134.39,129.042 122.5,121.5C 122.167,121.833 121.833,122.167 121.5,122.5C 129.042,134.39 126.375,142.723 113.5,147.5C 104.167,142.167 94.8333,142.167 85.5,147.5C 72.6246,142.723 69.9579,134.39 77.5,122.5C 77.1667,122.167 76.8333,121.833 76.5,121.5C 64.9129,128.923 56.5796,126.423 51.5,114C 56.8333,104.333 56.8333,94.6667 51.5,85C 56.5796,72.5773 64.9129,70.0773 76.5,77.5C 76.8333,77.1667 77.1667,76.8333 77.5,76.5C 70.4563,65.6694 72.4563,57.336 83.5,51.5 Z M 28.5,61.5 C 37.7716,60.8067 46.7716,61.9733 55.5,65C 56.9817,67.5918 56.6483,69.9251 54.5,72C 44.2988,75.368 37.6321,82.2014 34.5,92.5C 25.9611,85.7941 19.9611,77.2941 16.5,67C 17.444,65.5232 18.7774,64.5232 20.5,64C 23.3791,63.454 26.0458,62.6206 28.5,61.5 Z M 154.5,61.5 C 162.651,61.0089 170.651,61.8422 178.5,64C 180.223,64.5232 181.556,65.5232 182.5,67C 179.022,77.4742 172.855,85.9742 164,92.5C 162.444,87.7202 160.111,83.3869 157,79.5C 152.81,75.7394 148.143,72.7394 143,70.5C 142.505,68.5273 142.338,66.5273 142.5,64.5C 146.687,63.7867 150.687,62.7867 154.5,61.5 Z M 49.5,77.5 C 50.0431,77.56 50.3764,77.8933 50.5,78.5C 49.1491,80.4545 48.4825,82.6212 48.5,85C 49.6822,89.8676 51.0156,94.7009 52.5,99.5C 51.0156,104.299 49.6822,109.132 48.5,114C 48.9253,116.622 49.4253,119.122 50,121.5C 33.655,106.97 33.4883,92.3029 49.5,77.5 Z M 148.5,77.5 C 165.568,91.8462 165.735,106.513 149,121.5C 149.575,119.122 150.075,116.622 150.5,114C 149.318,109.132 147.984,104.299 146.5,99.5C 147.984,94.7009 149.318,89.8676 150.5,85C 150.261,82.3647 149.594,79.8647 148.5,77.5 Z M 98.5,78.5 C 100.898,80.5476 103.564,82.381 106.5,84C 109.146,84.4974 111.813,84.6641 114.5,84.5C 113.475,90.7734 115.475,95.7734 120.5,99.5C 115.475,103.227 113.475,108.227 114.5,114.5C 108.227,113.475 103.227,115.475 99.5,120.5C 95.7734,115.475 90.7734,113.475 84.5,114.5C 85.5254,108.227 83.5254,103.227 78.5,99.5C 83.5254,95.7734 85.5254,90.7734 84.5,84.5C 90.7566,85.6954 95.4233,83.6954 98.5,78.5 Z M 33.5,106.5 C 34.3764,106.369 35.0431,106.702 35.5,107.5C 38.7993,117.966 45.6326,124.966 56,128.5C 56.4955,130.473 56.6621,132.473 56.5,134.5C 43.3517,138.803 30.3517,138.47 17.5,133.5C 17.1667,133 16.8333,132.5 16.5,132C 19.9899,122.017 25.6566,113.517 33.5,106.5 Z M 163.5,106.5 C 173.659,112.946 179.659,121.946 181.5,133.5C 168.902,138.662 156.235,138.829 143.5,134C 142.424,132.274 142.257,130.441 143,128.5C 148.143,126.261 152.81,123.261 157,119.5C 160.232,115.702 162.399,111.369 163.5,106.5 Z M 64.5,142.5 C 66.5273,142.338 68.5273,142.505 70.5,143C 72.7394,148.143 75.7394,152.81 79.5,157C 83.3869,160.111 87.7202,162.444 92.5,164C 85.9742,172.855 77.4742,179.022 67,182.5C 65.5232,181.556 64.5232,180.223 64,178.5C 60.6688,166.459 60.8355,154.459 64.5,142.5 Z M 128.5,142.5 C 130.5,142.5 132.5,142.5 134.5,142.5C 137.659,153.05 138.159,163.716 136,174.5C 135.415,177.62 134.081,180.287 132,182.5C 121.706,179.039 113.206,173.039 106.5,164.5C 111.128,162.519 115.461,160.019 119.5,157C 123.401,152.693 126.401,147.86 128.5,142.5 Z M 97.5,146.5 C 103.111,147.389 108.611,148.723 114,150.5C 116.622,150.075 119.122,149.575 121.5,149C 106.787,165.648 92.1205,165.648 77.5,149C 79.8778,149.575 82.3778,150.075 85,150.5C 89.4919,149.819 93.6586,148.485 97.5,146.5 Z"/></g>
<g><path style="opacity:0.646" fill="#000000" d="M 36.5,28.5 C 47.4748,27.6426 52.6414,32.6426 52,43.5C 48.6852,51.6114 42.8518,54.1114 34.5,51C 28.0071,45.9187 26.8404,39.752 31,32.5C 32.8121,31.0229 34.6455,29.6896 36.5,28.5 Z M 39.5,31.5 C 47.1423,32.9366 49.9757,37.2699 48,44.5C 40.7607,51.3759 35.2607,50.0425 31.5,40.5C 32.8216,36.1848 35.4883,33.1848 39.5,31.5 Z"/></g>
<g><path style="opacity:0.641" fill="#000000" d="M 154.5,28.5 C 167.672,27.8582 172.505,33.8582 169,46.5C 162,54.5 155,54.5 148,46.5C 144.867,38.4552 147.034,32.4552 154.5,28.5 Z M 157.5,31.5 C 165.142,32.9366 167.976,37.2699 166,44.5C 158.761,51.3759 153.261,50.0425 149.5,40.5C 150.822,36.1848 153.488,33.1848 157.5,31.5 Z"/></g>
<g><path style="opacity:0.753" fill="#000000" d="M 38.5,34.5 C 45.8321,34.9997 47.8321,38.4997 44.5,45C 39.3029,47.5673 35.9696,46.0673 34.5,40.5C 34.8662,37.7441 36.1995,35.7441 38.5,34.5 Z"/></g>
<g><path style="opacity:0.741" fill="#000000" d="M 156.5,34.5 C 162.33,34.1605 164.83,36.8272 164,42.5C 160.333,47.8333 156.667,47.8333 153,42.5C 152.279,38.9463 153.446,36.2796 156.5,34.5 Z"/></g>
<g><path style="opacity:0.008" fill="#000000" d="M 53.5,53.5 C 52.8333,52.1667 52.8333,52.1667 53.5,53.5 Z"/></g>
<g><path style="opacity:0.004" fill="#000000" d="M 145.5,52.5 C 146.833,53.1667 146.833,53.1667 145.5,52.5 Z"/></g>
<g><path style="opacity:0.669" fill="#000000" d="M 98.5,71.5 C 101.259,74.1313 103.926,76.9646 106.5,80C 108.137,80.6012 109.803,81.1012 111.5,81.5C 114.13,80.6221 116.797,79.9555 119.5,79.5C 119.045,82.2035 118.378,84.8702 117.5,87.5C 117.899,89.1966 118.399,90.8632 119,92.5C 121.517,95.181 124.351,97.5144 127.5,99.5C 118.357,103.597 115.691,110.264 119.5,119.5C 110.264,115.691 103.597,118.357 99.5,127.5C 97.5144,124.351 95.181,121.517 92.5,119C 90.8632,118.399 89.1966,117.899 87.5,117.5C 84.8702,118.378 82.2035,119.045 79.5,119.5C 79.9555,116.797 80.6221,114.13 81.5,111.5C 81.1012,109.803 80.6012,108.137 80,106.5C 77.4825,103.819 74.6492,101.486 71.5,99.5C 76.6877,96.9845 80.021,92.9845 81.5,87.5C 80.6221,84.8702 79.9555,82.2035 79.5,79.5C 88.6846,83.4418 95.018,80.7752 98.5,71.5 Z M 98.5,78.5 C 95.4233,83.6954 90.7566,85.6954 84.5,84.5C 85.5254,90.7734 83.5254,95.7734 78.5,99.5C 83.5254,103.227 85.5254,108.227 84.5,114.5C 90.7734,113.475 95.7734,115.475 99.5,120.5C 103.227,115.475 108.227,113.475 114.5,114.5C 113.475,108.227 115.475,103.227 120.5,99.5C 115.475,95.7734 113.475,90.7734 114.5,84.5C 111.813,84.6641 109.146,84.4974 106.5,84C 103.564,82.381 100.898,80.5476 98.5,78.5 Z"/></g>
<g><path style="opacity:0.867" fill="#000000" d="M 16.5,90.5 C 25.2244,91.6179 28.0578,96.2846 25,104.5C 19.7149,109.865 14.7149,109.532 10,103.5C 8.05612,96.9795 10.2228,92.6462 16.5,90.5 Z"/></g>
<g><path style="opacity:0.875" fill="#000000" d="M 179.5,90.5 C 188.224,91.6179 191.058,96.2846 188,104.5C 183.333,109.833 178.667,109.833 174,104.5C 171.143,97.8918 172.977,93.2251 179.5,90.5 Z"/></g>
<g><path style="opacity:0.004" fill="#000000" d="M 145.5,145.5 C 146.833,146.167 146.833,146.167 145.5,145.5 Z"/></g>
<g><path style="opacity:0.638" fill="#000000" d="M 36.5,146.5 C 49.2073,146.27 54.0406,152.27 51,164.5C 45.9187,170.993 39.752,172.16 32.5,168C 26.2295,159.29 27.5628,152.123 36.5,146.5 Z M 39.5,149.5 C 47.1423,150.937 49.9757,155.27 48,162.5C 40.7607,169.376 35.2607,168.043 31.5,158.5C 32.8216,154.185 35.4883,151.185 39.5,149.5 Z"/></g>
<g><path style="opacity:0.642" fill="#000000" d="M 154.5,146.5 C 165.984,145.816 171.151,151.15 170,162.5C 165.254,170.989 158.754,172.656 150.5,167.5C 144.266,159.031 145.599,152.031 154.5,146.5 Z M 157.5,149.5 C 165.142,150.937 167.976,155.27 166,162.5C 158.761,169.376 153.261,168.043 149.5,158.5C 150.822,154.185 153.488,151.185 157.5,149.5 Z"/></g>
<g><path style="opacity:0.741" fill="#000000" d="M 38.5,152.5 C 44.3296,152.161 46.8296,154.827 46,160.5C 42.3333,165.833 38.6667,165.833 35,160.5C 34.2793,156.946 35.4459,154.28 38.5,152.5 Z"/></g>
<g><path style="opacity:0.74" fill="#000000" d="M 156.5,152.5 C 162.33,152.161 164.83,154.827 164,160.5C 160.333,165.833 156.667,165.833 153,160.5C 152.279,156.946 153.446,154.28 156.5,152.5 Z"/></g>
<g><path style="opacity:0.873" fill="#000000" d="M 96.5,172.5 C 105.846,172.332 109.346,176.665 107,185.5C 99.3771,191.812 93.8771,190.312 90.5,181C 91.1868,177.16 93.1868,174.327 96.5,172.5 Z"/></g>
</svg>
